<svg width="781" height="1024" viewBox="0 0 781 1024" fill="none" xmlns="http://www.w3.org/2000/svg">
<rect x="15.271" y="-43" width="780.729" height="1111" fill="#3B42EE"/>
<rect x="15.271" width="114.532" height="300" fill="#2E3066"/>
<rect x="670.014" y="629" width="114.532" height="402" fill="#2E3066"/>
<rect x="98.3069" y="-89" width="114.532" height="300" fill="#2E3066"/>
<rect x="626.11" y="703" width="114.532" height="361" fill="#2E3066"/>
<rect x="567.89" y="771" width="114.532" height="361" fill="#2E3066"/>
<rect x="515.396" y="839" width="114.532" height="361" fill="#2E3066"/>
<rect x="466.719" y="908" width="114.532" height="361" fill="#2E3066"/>
<rect x="181.343" y="-178" width="114.532" height="300" fill="#2E3066"/>
<path d="M154.619 776L185.202 833H124.036L154.619 776Z" fill="#2E3066"/>
<path d="M125.031 832L155.614 889H94.4482L125.031 832Z" fill="#2E3066"/>
<path d="M185.161 832L215.744 889H154.578L185.161 832Z" fill="#2E3066"/>
<path d="M154.619 888L185.202 945H124.036L154.619 888Z" fill="#2E3066"/>
<path d="M125.031 944L155.614 1001H94.4482L125.031 944Z" fill="#2E3066"/>
<path d="M214.748 888L245.331 945H184.165L214.748 888Z" fill="#2E3066"/>
<path d="M185.161 944L215.744 1001H154.578L185.161 944Z" fill="#2E3066"/>
<path d="M245.29 944L275.873 1001H214.707L245.29 944Z" fill="#2E3066"/>
<path d="M95.4436 888L126.027 945H64.8607L95.4436 888Z" fill="#2E3066"/>
<path d="M65.8561 944L96.4391 1001H35.2732L65.8561 944Z" fill="#2E3066"/>
<path d="M35.3141 1001L65.8971 1058H4.7312L35.3141 1001Z" fill="#2E3066"/>
<path d="M95.4436 1001L126.027 1058H64.8607L95.4436 1001Z" fill="#2E3066"/>
<path d="M155.573 1001L186.156 1058H124.99L155.573 1001Z" fill="#2E3066"/>
<path d="M215.703 1001L246.286 1058H185.12L215.703 1001Z" fill="#2E3066"/>
<path d="M275.832 1001L306.415 1058H245.249L275.832 1001Z" fill="#2E3066"/>
<ellipse cx="574.772" cy="142" rx="4.77218" ry="5" fill="#D9D9D9"/>
<ellipse cx="596.724" cy="142" rx="4.77218" ry="5" fill="#D9D9D9"/>
<ellipse cx="618.676" cy="142" rx="4.77218" ry="5" fill="#D9D9D9"/>
<ellipse cx="640.628" cy="142" rx="4.77218" ry="5" fill="#D9D9D9"/>
<ellipse cx="662.58" cy="142" rx="4.77218" ry="5" fill="#D9D9D9"/>
<ellipse cx="684.532" cy="142" rx="4.77218" ry="5" fill="#D9D9D9"/>
<ellipse cx="574.772" cy="166" rx="4.77218" ry="5" fill="#D9D9D9"/>
<ellipse cx="574.772" cy="190" rx="4.77218" ry="5" fill="#D9D9D9"/>
<ellipse cx="596.724" cy="190" rx="4.77218" ry="5" fill="#D9D9D9"/>
<ellipse cx="618.676" cy="190" rx="4.77218" ry="5" fill="#D9D9D9"/>
<ellipse cx="640.628" cy="190" rx="4.77218" ry="5" fill="#D9D9D9"/>
<ellipse cx="662.58" cy="190" rx="4.77218" ry="5" fill="#D9D9D9"/>
<ellipse cx="684.532" cy="190" rx="4.77218" ry="5" fill="#D9D9D9"/>
<ellipse cx="574.772" cy="214" rx="4.77218" ry="5" fill="#D9D9D9"/>
<ellipse cx="596.724" cy="214" rx="4.77218" ry="5" fill="#D9D9D9"/>
<ellipse cx="618.676" cy="214" rx="4.77218" ry="5" fill="#D9D9D9"/>
<ellipse cx="640.628" cy="214" rx="4.77218" ry="5" fill="#D9D9D9"/>
<ellipse cx="662.58" cy="214" rx="4.77218" ry="5" fill="#D9D9D9"/>
<ellipse cx="684.532" cy="214" rx="4.77218" ry="5" fill="#D9D9D9"/>
<ellipse cx="574.772" cy="238" rx="4.77218" ry="5" fill="#D9D9D9"/>
<ellipse cx="596.724" cy="238" rx="4.77218" ry="5" fill="#D9D9D9"/>
<ellipse cx="618.676" cy="238" rx="4.77218" ry="5" fill="#D9D9D9"/>
<ellipse cx="640.628" cy="238" rx="4.77218" ry="5" fill="#D9D9D9"/>
<ellipse cx="662.58" cy="238" rx="4.77218" ry="5" fill="#D9D9D9"/>
<ellipse cx="684.532" cy="238" rx="4.77218" ry="5" fill="#D9D9D9"/>
<ellipse cx="574.772" cy="262" rx="4.77218" ry="5" fill="#D9D9D9"/>
<ellipse cx="574.772" cy="286" rx="4.77218" ry="5" fill="#D9D9D9"/>
<ellipse cx="574.772" cy="310" rx="4.77218" ry="5" fill="#D9D9D9"/>
<ellipse cx="596.724" cy="262" rx="4.77218" ry="5" fill="#D9D9D9"/>
<ellipse cx="596.724" cy="286" rx="4.77218" ry="5" fill="#D9D9D9"/>
<ellipse cx="596.724" cy="310" rx="4.77218" ry="5" fill="#D9D9D9"/>
<ellipse cx="618.676" cy="262" rx="4.77218" ry="5" fill="#D9D9D9"/>
<ellipse cx="618.676" cy="286" rx="4.77218" ry="5" fill="#D9D9D9"/>
<ellipse cx="618.676" cy="310" rx="4.77218" ry="5" fill="#D9D9D9"/>
<ellipse cx="640.628" cy="262" rx="4.77218" ry="5" fill="#D9D9D9"/>
<ellipse cx="640.628" cy="286" rx="4.77218" ry="5" fill="#D9D9D9"/>
<ellipse cx="640.628" cy="310" rx="4.77218" ry="5" fill="#D9D9D9"/>
<ellipse cx="662.58" cy="262" rx="4.77218" ry="5" fill="#D9D9D9"/>
<ellipse cx="662.58" cy="286" rx="4.77218" ry="5" fill="#D9D9D9"/>
<ellipse cx="662.58" cy="310" rx="4.77218" ry="5" fill="#D9D9D9"/>
<ellipse cx="684.532" cy="262" rx="4.77218" ry="5" fill="#D9D9D9"/>
<ellipse cx="684.532" cy="286" rx="4.77218" ry="5" fill="#D9D9D9"/>
<ellipse cx="684.532" cy="310" rx="4.77218" ry="5" fill="#D9D9D9"/>
<ellipse cx="596.724" cy="166" rx="4.77218" ry="5" fill="#D9D9D9"/>
<ellipse cx="618.676" cy="166" rx="4.77218" ry="5" fill="#D9D9D9"/>
<ellipse cx="640.628" cy="166" rx="4.77218" ry="5" fill="#D9D9D9"/>
<ellipse cx="662.58" cy="166" rx="4.77218" ry="5" fill="#D9D9D9"/>
<ellipse cx="684.532" cy="166" rx="4.77218" ry="5" fill="#D9D9D9"/>
</svg>
